<?xml version="1.0" encoding="UTF-8" standalone="no"?>
<!DOCTYPE svg PUBLIC "-//W3C//DTD SVG 1.1//EN" "http://www.w3.org/Graphics/SVG/1.1/DTD/svg11.dtd">
<svg width="100%" height="100%" viewBox="0 0 201 85" version="1.1" xmlns="http://www.w3.org/2000/svg" xmlns:xlink="http://www.w3.org/1999/xlink" xml:space="preserve" xmlns:serif="http://www.serif.com/" style="fill-rule:evenodd;clip-rule:evenodd;stroke-linejoin:round;stroke-miterlimit:2;">
    <g id="Artboard1" transform="matrix(1.494691,0,0,0.631581,-1327.905288,-41.802832)">
        <rect x="888.414" y="66.188" width="133.821" height="133.821" style="fill:none;"/>
        <g transform="matrix(1.130322,0,0,1.62879,1287.419998,17.586542)">
            <g transform="matrix(0.94,0,0,1.59,-18.425111,-39.110687)">
                <text x="-307.085px" y="66.289px" style="font-family:'AppleSymbols', 'Apple Symbols';font-size:38.874px;fill:rgb(155,177,161);">🜋</text>
            </g>
        </g>
        <g transform="matrix(0.24213,0,0,0.573021,909.326174,74.023269)">
            <g transform="matrix(1.02,0,0,1.59,-0.490638,-108.955154)">
                <g transform="matrix(38.874265,0,0,38.874265,24.531893,184.669753)">
                    <path d="M0.623,-0L0.605,-0.215L0.629,-0.28L0.607,-0.345L0.644,-0.77L0.697,-0.77L0.654,-0.28L0.677,-0L0.623,-0ZM0.654,-0.28C0.638,-0.222 0.614,-0.171 0.583,-0.127C0.552,-0.083 0.515,-0.049 0.472,-0.025C0.429,-0 0.381,0.012 0.329,0.012C0.274,0.012 0.226,-0 0.183,-0.025C0.14,-0.05 0.107,-0.084 0.082,-0.128C0.057,-0.172 0.045,-0.223 0.045,-0.28C0.045,-0.338 0.057,-0.389 0.082,-0.432C0.107,-0.476 0.14,-0.51 0.183,-0.535C0.226,-0.56 0.274,-0.572 0.329,-0.572C0.381,-0.572 0.429,-0.56 0.472,-0.535C0.515,-0.51 0.552,-0.476 0.583,-0.432C0.614,-0.389 0.638,-0.338 0.654,-0.28ZM0.101,-0.28C0.101,-0.233 0.111,-0.191 0.131,-0.154C0.15,-0.118 0.177,-0.09 0.211,-0.07C0.246,-0.049 0.285,-0.039 0.329,-0.039C0.373,-0.039 0.413,-0.049 0.45,-0.07C0.487,-0.09 0.519,-0.118 0.548,-0.154C0.577,-0.191 0.601,-0.233 0.62,-0.28C0.601,-0.328 0.577,-0.37 0.548,-0.406C0.519,-0.442 0.487,-0.47 0.45,-0.49C0.413,-0.511 0.373,-0.521 0.329,-0.521C0.285,-0.521 0.246,-0.511 0.211,-0.49C0.177,-0.47 0.15,-0.442 0.131,-0.406C0.111,-0.37 0.101,-0.328 0.101,-0.28Z" style="fill:rgb(155,177,161);fill-rule:nonzero;"/>
                </g>
                <g transform="matrix(38.874265,0,0,38.874265,70.17028,184.669753)">
                    <path d="M0.08,-0.56L0.107,-0.556L0.134,-0.56L0.134,-0L0.08,-0L0.08,-0.56ZM0.107,-0.655C0.093,-0.655 0.081,-0.66 0.072,-0.669C0.062,-0.679 0.057,-0.691 0.057,-0.704C0.057,-0.717 0.062,-0.729 0.072,-0.739C0.081,-0.748 0.093,-0.753 0.107,-0.753C0.121,-0.753 0.133,-0.748 0.143,-0.739C0.152,-0.729 0.157,-0.717 0.157,-0.704C0.157,-0.691 0.152,-0.679 0.143,-0.669C0.133,-0.66 0.121,-0.655 0.107,-0.655Z" style="fill:rgb(155,177,161);fill-rule:nonzero;"/>
                </g>
                <g transform="matrix(38.874265,0,0,38.874265,95.127559,184.669753)">
                    <path d="M0.593,-0.157C0.593,-0.124 0.582,-0.094 0.559,-0.069C0.537,-0.044 0.506,-0.024 0.466,-0.009C0.426,0.005 0.38,0.012 0.327,0.012C0.272,0.012 0.224,0.004 0.18,-0.013C0.137,-0.03 0.103,-0.054 0.079,-0.085C0.053,-0.115 0.04,-0.15 0.038,-0.19L0.093,-0.19C0.097,-0.16 0.11,-0.133 0.131,-0.111C0.151,-0.088 0.179,-0.069 0.213,-0.057C0.247,-0.044 0.285,-0.037 0.327,-0.037C0.39,-0.037 0.44,-0.048 0.479,-0.071C0.518,-0.093 0.537,-0.122 0.537,-0.157C0.537,-0.186 0.525,-0.208 0.5,-0.222C0.475,-0.236 0.43,-0.247 0.365,-0.254L0.259,-0.266C0.211,-0.271 0.172,-0.28 0.142,-0.292C0.112,-0.305 0.09,-0.321 0.076,-0.341C0.063,-0.36 0.056,-0.384 0.056,-0.411C0.056,-0.445 0.066,-0.474 0.087,-0.498C0.108,-0.522 0.137,-0.54 0.174,-0.553C0.211,-0.566 0.254,-0.572 0.303,-0.572C0.356,-0.572 0.404,-0.564 0.446,-0.548C0.487,-0.532 0.52,-0.51 0.545,-0.482C0.57,-0.454 0.583,-0.421 0.585,-0.384L0.53,-0.384C0.527,-0.411 0.515,-0.435 0.494,-0.457C0.474,-0.478 0.448,-0.494 0.415,-0.506C0.382,-0.517 0.344,-0.523 0.301,-0.523C0.24,-0.523 0.194,-0.514 0.161,-0.495C0.128,-0.476 0.112,-0.449 0.112,-0.414C0.112,-0.386 0.123,-0.365 0.146,-0.35C0.169,-0.335 0.208,-0.324 0.263,-0.317L0.368,-0.305C0.424,-0.299 0.468,-0.29 0.502,-0.279C0.535,-0.267 0.558,-0.251 0.572,-0.232C0.586,-0.213 0.593,-0.188 0.593,-0.157Z" style="fill:rgb(155,177,161);fill-rule:nonzero;"/>
                </g>
                <g transform="matrix(38.874265,0,0,38.874265,136.222993,184.669753)">
                    <path d="M0.003,-0.511L0.003,-0.541L0.129,-0.556L0.149,-0.703L0.183,-0.703L0.183,-0.56L0.469,-0.56L0.469,-0.511L0.183,-0.511L0.183,-0.185C0.183,-0.131 0.195,-0.093 0.22,-0.072C0.244,-0.05 0.28,-0.039 0.328,-0.039C0.359,-0.039 0.387,-0.043 0.411,-0.052C0.434,-0.06 0.457,-0.072 0.48,-0.088L0.48,-0.032C0.465,-0.021 0.443,-0.011 0.413,-0.002C0.382,0.007 0.351,0.012 0.318,0.012C0.271,0.012 0.234,0.004 0.207,-0.013C0.179,-0.03 0.159,-0.052 0.147,-0.081C0.135,-0.11 0.129,-0.141 0.129,-0.176L0.129,-0.511L0.003,-0.511Z" style="fill:rgb(155,177,161);fill-rule:nonzero;"/>
                </g>
                <g transform="matrix(38.874265,0,0,38.874265,172.376059,184.669753)">
                    <path d="M0.08,-0.56L0.107,-0.556L0.134,-0.56L0.134,-0L0.08,-0L0.08,-0.56ZM0.107,-0.655C0.093,-0.655 0.081,-0.66 0.072,-0.669C0.062,-0.679 0.057,-0.691 0.057,-0.704C0.057,-0.717 0.062,-0.729 0.072,-0.739C0.081,-0.748 0.093,-0.753 0.107,-0.753C0.121,-0.753 0.133,-0.748 0.143,-0.739C0.152,-0.729 0.157,-0.717 0.157,-0.704C0.157,-0.691 0.152,-0.679 0.143,-0.669C0.133,-0.66 0.121,-0.655 0.107,-0.655Z" style="fill:rgb(155,177,161);fill-rule:nonzero;"/>
                </g>
                <g transform="matrix(38.874265,0,0,38.874265,197.333338,184.669753)">
                    <rect x="0.08" y="-0.77" width="0.054" height="0.77" style="fill:rgb(155,177,161);fill-rule:nonzero;"/>
                </g>
                <g transform="matrix(38.874265,0,0,38.874265,222.290616,184.669753)">
                    <rect x="0.08" y="-0.77" width="0.054" height="0.77" style="fill:rgb(155,177,161);fill-rule:nonzero;"/>
                </g>
                <g transform="matrix(38.874265,0,0,38.874265,247.247894,184.669753)">
                    <path d="M0.366,0.012C0.303,0.012 0.247,-0 0.199,-0.025C0.15,-0.05 0.113,-0.084 0.086,-0.128C0.058,-0.172 0.045,-0.223 0.045,-0.28C0.045,-0.338 0.058,-0.389 0.084,-0.432C0.109,-0.476 0.145,-0.51 0.19,-0.535C0.235,-0.56 0.288,-0.572 0.348,-0.572C0.406,-0.572 0.457,-0.559 0.501,-0.534C0.545,-0.509 0.579,-0.474 0.604,-0.428C0.629,-0.384 0.641,-0.331 0.641,-0.272L0.082,-0.272L0.082,-0.32L0.628,-0.32L0.585,-0.29C0.583,-0.337 0.572,-0.377 0.552,-0.412C0.532,-0.447 0.505,-0.474 0.47,-0.492C0.435,-0.511 0.394,-0.521 0.348,-0.521C0.298,-0.521 0.255,-0.511 0.217,-0.491C0.18,-0.471 0.152,-0.443 0.132,-0.407C0.111,-0.371 0.101,-0.329 0.101,-0.28C0.101,-0.231 0.112,-0.189 0.134,-0.153C0.156,-0.117 0.187,-0.089 0.227,-0.069C0.266,-0.049 0.313,-0.039 0.366,-0.039C0.415,-0.039 0.462,-0.048 0.505,-0.065C0.548,-0.082 0.588,-0.105 0.624,-0.134L0.624,-0.083C0.589,-0.054 0.549,-0.03 0.502,-0.013C0.455,0.004 0.41,0.012 0.366,0.012Z" style="fill:rgb(155,177,161);fill-rule:nonzero;"/>
                </g>
                <g transform="matrix(38.874265,0,0,38.874265,290.398329,184.669753)">
                    <path d="M0.055,-0.56L0.109,-0.56L0.139,-0.381L0.139,-0L0.085,-0L0.085,-0.391L0.055,-0.56ZM0.451,-0.56L0.451,-0.507C0.44,-0.511 0.427,-0.514 0.41,-0.516C0.393,-0.519 0.377,-0.52 0.361,-0.52C0.318,-0.52 0.279,-0.51 0.245,-0.489C0.212,-0.469 0.186,-0.441 0.167,-0.404C0.148,-0.367 0.139,-0.325 0.139,-0.277L0.117,-0.312C0.117,-0.351 0.123,-0.386 0.135,-0.417C0.147,-0.449 0.164,-0.476 0.186,-0.499C0.209,-0.523 0.235,-0.54 0.266,-0.553C0.296,-0.566 0.329,-0.572 0.366,-0.572C0.381,-0.572 0.397,-0.571 0.413,-0.569C0.429,-0.566 0.442,-0.563 0.451,-0.56Z" style="fill:rgb(155,177,161);fill-rule:nonzero;"/>
                </g>
                <g transform="matrix(38.874265,0,0,38.874265,324.996425,184.669753)">
                    <path d="M0.169,0.177C0.145,0.177 0.124,0.174 0.105,0.168C0.086,0.162 0.067,0.152 0.046,0.139L0.046,0.092C0.065,0.104 0.084,0.113 0.103,0.119C0.121,0.124 0.142,0.127 0.167,0.127C0.196,0.127 0.221,0.12 0.241,0.107C0.262,0.094 0.279,0.073 0.293,0.045L0.599,-0.56L0.657,-0.56L0.335,0.069C0.322,0.093 0.308,0.113 0.292,0.129C0.276,0.145 0.258,0.157 0.238,0.165C0.217,0.173 0.194,0.177 0.169,0.177ZM0.292,-0.018L0.017,-0.56L0.077,-0.56L0.349,-0.018L0.292,-0.018Z" style="fill:rgb(155,177,161);fill-rule:nonzero;"/>
                </g>
                <g transform="matrix(38.874265,0,0,38.874265,351.119931,184.669753)">
                </g>
            </g>
        </g>
    </g>
</svg>
