<?xml version="1.0" encoding="UTF-8" standalone="no"?>
<!DOCTYPE svg PUBLIC "-//W3C//DTD SVG 1.1//EN" "http://www.w3.org/Graphics/SVG/1.1/DTD/svg11.dtd">
<svg width="100%" height="100%" viewBox="0 0 13 13" version="1.1" xmlns="http://www.w3.org/2000/svg" xmlns:xlink="http://www.w3.org/1999/xlink" xml:space="preserve" xmlns:serif="http://www.serif.com/" style="fill-rule:evenodd;clip-rule:evenodd;stroke-linejoin:round;stroke-miterlimit:2;">
    <g id="Distil_x5F_Studio">
    </g>
    <g id="Artboard2" transform="matrix(1,0,0,1,-22.005,-2.146744)">
        <rect x="22.005" y="2.147" width="12.614" height="12.614" style="fill:none;"/>
        <g transform="matrix(0.071091,0,0,0.082584,-39.766814,-2.554123)">
            <g transform="matrix(3.896162,0,0,3.255894,829.493299,53.498847)">
                <path d="M40.52,5.47C41.38,5.46 42.24,5.46 43.1,5.46C43.11,10.77 43.17,16.08 43.17,21.39C43.08,24.88 42.4,28.67 39.82,31.23C37.33,33.7 33.6,34.22 30.25,34.03C30.22,34.02 30.16,33.99 30.14,33.98L30.15,34.04C27.77,33.84 25.37,33.14 23.44,31.68C21.77,30.45 20.54,28.49 20.6,26.37C20.59,24 22.22,21.95 24.16,20.75C29.2,17.9 35.79,18.44 40.58,21.56C40.56,16.2 40.58,10.83 40.52,5.47ZM30.45,21.44C28.14,21.63 25.71,22.36 24.1,24.11C23.02,25.22 22.78,27.02 23.7,28.3C26.56,26.33 30.18,25.81 33.58,26.18C35.51,26.37 37.42,26.98 38.99,28.14C39.65,27.08 40.02,25.87 40.24,24.66C37.68,22.16 33.94,21.23 30.45,21.44ZM25.73,30.11C27.49,31.1 29.54,31.52 31.55,31.47C33.5,31.46 35.56,31.18 37.21,30.05C35.93,29.19 34.38,28.85 32.86,28.73C30.42,28.52 27.85,28.84 25.73,30.11Z" style="fill:rgb(155,177,161);fill-rule:nonzero;"/>
            </g>
            <g transform="matrix(3.896162,0,0,3.255894,829.493299,53.498847)">
                <path d="M43.67,24.85C46.3,29.02 45.09,35.09 41.15,38.03C37.48,40.89 32.5,41.88 27.98,40.91C25.92,40.45 23.93,39.51 22.44,38C20.5,36.19 20.03,33.05 21.41,30.77C21.97,31.47 22.61,32.12 23.34,32.64C22.44,35.13 24.88,37.27 27.04,37.95C29.71,38.88 32.66,38.89 35.37,38.11C37.15,37.73 38.78,36.78 40.12,35.55C40,34.57 39.69,33.63 39.37,32.7C40.05,32.17 40.63,31.52 41.16,30.85C41.49,31.58 41.71,32.35 41.9,33.13C42.58,31.77 42.72,30.19 42.49,28.7C43.02,27.47 43.46,26.18 43.67,24.85Z" style="fill:rgb(155,177,161);fill-rule:nonzero;"/>
            </g>
            <g transform="matrix(3.896162,0,0,3.255894,829.493299,53.498847)">
                <path d="M40.9,39.35C41.55,38.65 42.35,38.09 43,37.39C43.04,38.56 43.14,39.73 43,40.9C42.85,41.68 41.92,42.23 41.2,41.81C40.31,41.33 40.27,40.04 40.9,39.35Z" style="fill:rgb(155,177,161);fill-rule:nonzero;"/>
            </g>
        </g>
    </g>
</svg>
